<?xml version="1.0" encoding="UTF-8"?>
<svg width="214px" height="174px" viewBox="0 0 214 174" version="1.1" xmlns="http://www.w3.org/2000/svg" xmlns:xlink="http://www.w3.org/1999/xlink">
    <!-- Generator: Sketch 57.1 (83088) - https://sketch.com -->
    <title>head</title>
    <desc>Created with Sketch.</desc>
    <g id="Page-1" stroke="none" stroke-width="1" fill="none" fill-rule="evenodd">
        <g id="2-red-trans">
            <g id="head">
                <path d="M107,48.5 C161.123905,48.5 205,82.3692727 205,134.708609 C205,146.84735 202.639963,156.179846 198.339397,163.354841 C158.866948,168.785047 128.421123,171.5 107,171.5 C85.5788771,171.5 55.133052,168.785047 15.6625245,163.35514 C11.3601241,156.18019 9,146.847574 9,134.708609 C9,82.3692727 52.8760945,48.5 107,48.5 Z" id="Combined-Shape" stroke="#000000" stroke-width="4" fill="#000000"></path>
                <circle id="rear" fill="#000000" cx="192.841265" cy="96.4040698" r="21"></circle>
                <circle id="lear" fill="#000000" cx="21.1587352" cy="96.4040698" r="21"></circle>
                <path d="M31.0375752,148.501283 C25.166154,143.214709 25.1587352,132.230749 25.1587352,122.825713 C25.1587352,91.5733558 61.8003176,70.2412791 107,70.2412791 L108.353395,70.2476673 C152.92885,70.6689126 188.841265,91.8858794 188.841265,122.825713 C188.841265,132.230749 188.833846,143.214709 182.962425,148.501283 C169.732643,160.413256 140.425548,159.593911 109.840972,159.534029 L107,159.531052 C75.4026405,159.531052 44.6765256,160.781668 31.0375752,148.501283 Z" id="face" fill="#40FFF2"></path>
                <g id="eyes" transform="translate(52.000000, 96.404070)" fill="#000000">
                    <path d="M12.075,12.5856831 C12.075,20.6090239 18.5388889,27.1132267 26.5125,27.1132267 C30.7885463,27.1132267 34.6304106,25.2426791 37.2740239,22.2704184 C35.5648033,30.651665 27.9505449,36.9715669 18.816,36.9715669 C8.42421015,36.9715669 4.54747351e-13,28.7922465 4.54747351e-13,18.7025436 C4.54747351e-13,8.61284067 8.42421015,0.433520349 18.816,0.433520349 L18.5958651,0.434966778 C14.6682632,3.03122149 12.075,7.503719 12.075,12.5856831 Z" id="Combined-Shape"></path>
                    <path d="M84.1785,12.5856831 C84.1785,20.6090239 90.6423889,27.1132267 98.616,27.1132267 C102.892046,27.1132267 106.733911,25.2426791 109.377524,22.2704184 C107.668303,30.651665 100.054045,36.9715669 90.9195,36.9715669 C80.5277101,36.9715669 72.1035,28.7922465 72.1035,18.7025436 C72.1035,8.61284067 80.5277101,0.433520349 90.9195,0.433520349 L90.6993651,0.434966778 C86.7717632,3.03122149 84.1785,7.503719 84.1785,12.5856831 Z" id="Combined-Shape"></path>
                </g>
                <g id="hat" transform="translate(93.000000, 0.500000)">
                    <polygon id="Triangle" fill="#000000" points="14 26.5 27.5 53.5 0.5 53.5"></polygon>
                    <path d="M14,50.6802326 L14,28.8343023" id="Line-2" stroke="#000000" stroke-width="8" stroke-linecap="square"></path>
                    <ellipse fill="#DC143C" cx="14" cy="13.5930233" rx="14" ry="13.5930233"></ellipse>
                </g>
            </g>
        </g>
    </g>
</svg>