<?xml version="1.0" encoding="UTF-8"?>
<svg width="1100px" height="903px" viewBox="0 0 1100 903" version="1.1" xmlns="http://www.w3.org/2000/svg" xmlns:xlink="http://www.w3.org/1999/xlink">
    <!-- Generator: Sketch 57.1 (83088) - https://sketch.com -->
    <title>head copy</title>
    <desc>Created with Sketch.</desc>
    <g id="Page-1" stroke="none" stroke-width="1" fill="none" fill-rule="evenodd">
        <g id="2-red-trans" transform="translate(-466.000000, 0.000000)">
            <g id="head-copy" transform="translate(466.000000, 0.000000)">
                <path d="M550,281.569767 C820.619527,281.569767 1040,433.965044 1040,703.225893 C1040,765.67364 1028.19992,813.684725 1006.69726,850.596579 C809.337124,878.532646 657.106453,892.5 550,892.5 C442.893547,892.5 290.662876,878.532646 93.3079858,850.597937 C71.8002371,813.685348 60,765.674045 60,703.225893 C60,433.965044 279.380473,281.569767 550,281.569767 Z" id="Combined-Shape" stroke="#000000" stroke-width="20" fill="#000000"></path>
                <ellipse id="rear" fill="#000000" cx="1000" cy="519.453436" rx="100" ry="97.0930233"></ellipse>
                <ellipse id="lear" fill="#000000" cx="100" cy="519.453436" rx="100" ry="97.0930233"></ellipse>
                <path d="M549.206324,834.820957 C707.193121,834.820957 870.707781,841.074035 938.902532,779.672111 C968.259639,753.239243 958.412648,698.319442 958.412648,651.294261 C958.412648,495.032477 775.204736,388.372093 549.206324,388.372093 C323.207912,388.372093 140,495.032477 140,651.294261 C140,699.179383 140.807685,753.086751 171.175738,779.672111 C239.906653,839.841794 392.463242,834.820957 549.206324,834.820957 Z" id="face" fill="#40FFF2"></path>
                <polygon id="Triangle" fill="#000000" points="550 169.912791 617.5 286.424419 482.5 286.424419"></polygon>
                <g id="eyes" transform="translate(275.000000, 519.020349)" fill="#000000">
                    <path d="M60.375,60.9284157 C60.375,101.04512 92.6944446,133.566134 132.5625,133.566134 C153.941384,133.566134 173.149633,124.214574 186.367621,109.3549 C177.820666,151.261106 139.750715,182.857834 94.08,182.857834 C42.1210507,182.857834 4.54747351e-13,141.961233 4.54747351e-13,91.512718 C4.54747351e-13,41.0642033 42.1210507,0.167601744 94.08,0.167601744 L92.9796762,0.174602138 C73.3414704,13.1558413 60.375,35.5184438 60.375,60.9284157 Z" id="Combined-Shape"></path>
                    <path d="M420.8925,60.9284157 C420.8925,101.04512 453.211945,133.566134 493.08,133.566134 C514.458884,133.566134 533.667133,124.214574 546.885121,109.3549 C538.338166,151.261106 500.268215,182.857834 454.5975,182.857834 C402.638551,182.857834 360.5175,141.961233 360.5175,91.512718 C360.5175,41.0642033 402.638551,0.167601744 454.5975,0.167601744 L453.497176,0.174602138 C433.85897,13.1558413 420.8925,35.5184438 420.8925,60.9284157 Z" id="Combined-Shape"></path>
                </g>
                <path d="M550,259.723837 L550,150.494186" id="Line-2" stroke="#000000" stroke-width="40" stroke-linecap="square"></path>
                <ellipse id="hat" fill="#DC143C" cx="550" cy="67.9651163" rx="70" ry="67.9651163"></ellipse>
            </g>
        </g>
    </g>
</svg>